<svg xmlns="http://www.w3.org/2000/svg" viewBox="0 0 1200 400">
  <defs>
    <linearGradient id="blueGradient" x1="0%" y1="0%" x2="100%" y2="0%">
      <stop offset="0%" style="stop-color:#0066B3;stop-opacity:1" />
      <stop offset="100%" style="stop-color:#004B87;stop-opacity:1" />
    </linearGradient>
  </defs>
  
  <!-- Bandeira ondulada -->
  <path d="M 40 80 Q 80 60, 120 80 T 200 80 L 200 280 Q 160 300, 120 280 T 40 280 Z" 
        fill="url(#blueGradient)" opacity="0.3"/>
  <path d="M 50 100 Q 90 80, 130 100 T 210 100 L 210 260 Q 170 280, 130 260 T 50 260 Z" 
        fill="#E8F4F8"/>
  <path d="M 60 120 Q 100 100, 140 120 T 220 120 L 220 240 Q 180 260, 140 240 T 60 240 Z" 
        fill="url(#blueGradient)"/>
  
  <!-- Brasão simplificado -->
  <circle cx="130" cy="180" r="35" fill="#FFD700" opacity="0.8"/>
  <path d="M 115 180 L 130 165 L 145 180 L 130 195 Z" fill="#0066B3"/>
  
  <!-- Texto PONTA GROSSA -->
  <text x="280" y="150" font-family="Arial, sans-serif" font-size="80" font-weight="bold" fill="#0066B3">
    PONTA
  </text>
  <text x="280" y="240" font-family="Arial, sans-serif" font-size="80" font-weight="bold" fill="#0066B3">
    GROSSA
  </text>
  
  <!-- Texto PREFEITURA menor -->
  <text x="280" y="290" font-family="Arial, sans-serif" font-size="35" font-weight="300" 
        fill="#0066B3" letter-spacing="8">
    P R E F E I T U R A
  </text>
  
  <!-- Barra separadora -->
  <rect x="850" y="80" width="3" height="240" fill="#CCCCCC"/>
  
  <!-- Texto FASPG -->
  <text x="920" y="180" font-family="Arial, sans-serif" font-size="75" font-weight="bold" fill="#0066B3">
    FASPG
  </text>
  
  <!-- Texto FUNDAÇÃO DE menor -->
  <text x="920" y="230" font-family="Arial, sans-serif" font-size="28" font-weight="300" 
        fill="#0066B3" font-style="italic">
    FUNDAÇÃO DE
  </text>
  
  <!-- Texto ASSISTÊNCIA SOCIAL -->
  <text x="920" y="265" font-family="Arial, sans-serif" font-size="28" font-weight="300" 
        fill="#0066B3">
    ASSISTÊNCIA SOCIAL
  </text>
</svg>
