<svg version="1.2" xmlns="http://www.w3.org/2000/svg" viewBox="0 0 921 258" width="921" height="258">
	<defs>
		<linearGradient id="g1" x2="1" gradientUnits="userSpaceOnUse" gradientTransform="matrix(-173.475,-61.662,73.036,-205.473,203.802,1084.001)">
			<stop offset="0" stop-color="#9e9d9f"/>
			<stop offset=".06" stop-color="#bfbfc0"/>
			<stop offset=".13" stop-color="#dadbdb"/>
			<stop offset=".19" stop-color="#ebecec"/>
			<stop offset=".23" stop-color="#f1f2f2"/>
			<stop offset=".29" stop-color="#ebecec"/>
			<stop offset=".36" stop-color="#dbdcdc"/>
			<stop offset=".44" stop-color="#c2c1c2"/>
			<stop offset=".49" stop-color="#adacad"/>
			<stop offset=".53" stop-color="#9a999a"/>
			<stop offset=".57" stop-color="#8e8e8f"/>
			<stop offset=".61" stop-color="#8b8b8c"/>
			<stop offset=".67" stop-color="#b4b5b5"/>
			<stop offset=".73" stop-color="#d5d6d6"/>
			<stop offset=".78" stop-color="#e9eaea"/>
			<stop offset=".81" stop-color="#f1f2f2"/>
			<stop offset="1" stop-color="#cfcdcd"/>
		</linearGradient>
		<linearGradient id="g2" x2="1" gradientUnits="userSpaceOnUse" gradientTransform="matrix(191.64,37.78,-15.72,79.74,16.24,65.7)">
			<stop offset="0" stop-color="#0072a8"/>
			<stop offset=".19" stop-color="#018ec9"/>
			<stop offset=".23" stop-color="#0388c2"/>
			<stop offset=".28" stop-color="#0b78b0"/>
			<stop offset=".34" stop-color="#185e92"/>
			<stop offset=".39" stop-color="#23497a"/>
			<stop offset=".49" stop-color="#23497a"/>
			<stop offset=".55" stop-color="#1a578b"/>
			<stop offset=".68" stop-color="#0974ad"/>
			<stop offset=".75" stop-color="#0380ba"/>
			<stop offset=".89" stop-color="#136298"/>
			<stop offset="1" stop-color="#23497a"/>
		</linearGradient>
	</defs>
	<style>
		.s0 { fill: url(#g1) } 
		.s1 { fill: url(#g2) } 
		.s2 { fill: #98825f } 
		.s3 { fill: #baa530 } 
		.s4 { fill: #bbbabb } 
		.s5 { fill: #005490 } 
		.s6 { fill: #0f82bc } 
		.s7 { fill: #ffffff } 
	</style>
	<g id="logo_pos_hor">
		<g>
			<g>
				<g>
					<path class="s0" d="m194.89 129.25c-31.35-12.62-62.98 3.04-91.12 19.42-30.81 17.93-64.42 32.76-103.77 16.43 6.42-35.18 15.76-71.98 23.17-111.9 35.66 10.79 58.8-5.32 86.54-25.9 35.16-26.09 73.72-35.74 110.04-18.95-9.22 44.85-16.84 81.91-24.86 120.9z"/>
					<path class="s1" d="m194.88 129.28c-7.18-2.89-14.82-4.43-22.7-4.57-3.76-5.73-15.38-19.03-42.4-19.03-8.46 0-17.82 1.31-27.84 3.9-10.75 2.78-21.07 4.19-30.66 4.19-32.76 0-49.82-16.29-55.63-23.29 3.08-14.45 5.47-26.29 7.51-37.28 7.64 2.28 14.75 3.41 21.79 3.43 4.48 4.29 16.92 14.26 36.14 14.26 8.13 0 16.67-1.77 25.36-5.27 16.56-6.66 31.94-10.2 45.75-10.35 31.88-0.34 47.72 16.82 52.88 24.5l-10.16 49.53h-0.03z"/>
					<g>
						<g>
							<g>
								<g>
									<path class="s2" d="m116.41 76.98l-0.17 1.53 1.36-2.43q0.11-0.2 0.14-0.4l0.09-0.62z"/>
									<path class="s2" d="m116.33 76.85l-0.14 1.22-0.8-0.85c0 0-0.03-0.05-0.02-0.09l0.04-0.55z"/>
								</g>
								<g>
									<path class="s2" d="m116.34 74.56l-0.17 1.51 1.35-2.42q0.11-0.2 0.14-0.4l0.09-0.61-1.42 1.91z"/>
									<path class="s2" d="m116.26 74.43l-0.14 1.2-0.8-0.83c0 0-0.03-0.05-0.02-0.09l0.04-0.54z"/>
								</g>
								<g>
									<path class="s2" d="m115.81 72.45l-0.17 1.5 1.34-2.41q0.11-0.2 0.14-0.39l0.09-0.61c0 0-1.41 1.91-1.4 1.91z"/>
									<path class="s2" d="m115.73 72.32l-0.14 1.19-0.79-0.82c0 0-0.03-0.05-0.02-0.09l0.04-0.53z"/>
								</g>
								<g>
									<path class="s2" d="m115.99 79.72l-0.17 1.54 1.36-2.44q0.11-0.2 0.14-0.4l0.09-0.62-1.43 1.93z"/>
									<path class="s2" d="m115.91 79.59l-0.14 1.23-0.8-0.87c0 0-0.03-0.05-0.02-0.1l0.04-0.55z"/>
								</g>
								<g>
									<path class="s2" d="m115.12 82.76l-0.18 1.55 1.37-2.45q0.11-0.21 0.15-0.4l0.1-0.63c0 0-1.43 1.93-1.44 1.93z"/>
									<path class="s2" d="m115.04 82.62l-0.14 1.24-0.8-0.89c0 0-0.03-0.05-0.02-0.1l0.04-0.56 0.92 0.3z"/>
								</g>
								<g>
									<path class="s2" d="m113.77 86.08l-0.18 1.56 1.37-2.45q0.11-0.21 0.15-0.4l0.1-0.63c0 0-1.43 1.92-1.44 1.92z"/>
									<path class="s2" d="m113.69 85.94l-0.14 1.24-0.79-0.9c0 0-0.03-0.05-0.02-0.1l0.04-0.56 0.92 0.32z"/>
								</g>
								<g>
									<path class="s2" d="m111.69 89.85l-0.19 1.57 1.37-2.45q0.11-0.21 0.15-0.41l0.1-0.64-1.43 1.92z"/>
									<path class="s2" d="m111.61 89.71l-0.15 1.25-0.78-0.92c0 0-0.03-0.06-0.02-0.1l0.04-0.56z"/>
								</g>
								<g>
									<path class="s2" d="m109.2 93.09l-0.19 1.58 1.37-2.44q0.11-0.2 0.15-0.41l0.1-0.64-1.42 1.91z"/>
									<path class="s2" d="m109.12 92.95l-0.15 1.25-0.77-0.93c0 0-0.03-0.06-0.02-0.1l0.05-0.56 0.9 0.34z"/>
								</g>
							</g>
							<g>
								<g>
									<path class="s3" d="m94.85 90.08l-0.21 1.47-0.79-1.04q-0.06-0.09-0.05-0.26l0.06-0.56z"/>
									<path class="s3" d="m94.97 89.84l-0.17 1.17 1.06-1.91c0 0 0.04-0.09 0.05-0.13l0.1-0.56z"/>
								</g>
								<g>
									<path class="s3" d="m95.55 87.33l-0.21 1.46-0.79-1.02q-0.06-0.09-0.05-0.26l0.06-0.56z"/>
									<path class="s3" d="m95.67 87.08l-0.17 1.16 1.06-1.9c0 0 0.04-0.09 0.05-0.13l0.1-0.55-1.04 1.43z"/>
								</g>
								<g>
									<path class="s3" d="m96.67 84.33l-0.21 1.45-0.79-1q-0.06-0.08-0.05-0.26l0.06-0.55z"/>
									<path class="s3" d="m96.79 84.08l-0.17 1.15 1.06-1.9c0 0 0.04-0.09 0.05-0.13l0.1-0.55z"/>
								</g>
								<g>
									<path class="s3" d="m94.58 92.59l-0.22 1.49-0.79-1.06q-0.06-0.09-0.05-0.27l0.06-0.57 0.99 0.41z"/>
									<path class="s3" d="m94.7 92.35l-0.17 1.18 1.07-1.92c0 0 0.04-0.09 0.05-0.13l0.1-0.56z"/>
								</g>
								<g>
									<path class="s3" d="m94.71 94.89l-0.22 1.5-0.79-1.07q-0.06-0.09-0.05-0.27l0.06-0.57 1 0.42z"/>
									<path class="s3" d="m94.83 94.65l-0.17 1.19 1.08-1.93c0 0 0.04-0.09 0.05-0.14l0.1-0.57-1.05 1.44z"/>
								</g>
								<g>
									<path class="s3" d="m95.26 96.97l-0.22 1.51-0.8-1.09q-0.06-0.1-0.05-0.27l0.06-0.58z"/>
									<path class="s3" d="m95.38 96.72l-0.17 1.2 1.08-1.94c0 0 0.04-0.09 0.05-0.14l0.1-0.57c0 0-1.06 1.44-1.06 1.45z"/>
								</g>
								<g>
									<path class="s3" d="m96.5 98.68l-0.22 1.53-0.82-1.11q-0.06-0.09-0.05-0.28l0.06-0.59 1.02 0.44z"/>
									<path class="s3" d="m96.62 98.43l-0.17 1.22 1.09-1.96c0 0 0.04-0.09 0.05-0.14l0.1-0.58z"/>
								</g>
								<g>
									<path class="s3" d="m98.33 99.36l-0.21 1.55-0.83-1.13q-0.07-0.09-0.05-0.28l0.06-0.59 1.04 0.45z"/>
									<path class="s3" d="m98.45 99.1l-0.17 1.23 1.1-1.98c0 0 0.04-0.09 0.05-0.14l0.1-0.58-1.09 1.47z"/>
								</g>
							</g>
						</g>
						<g>
							<g>
								<path class="s4" d="m96.62 95.04l2.98-1.76c0.39-0.23 0.79-0.71 1.06-1.27l4.77-9.78-1.53 0.93c-0.38 0.23-0.76 0.65-1.06 1.17l-6.23 10.71z"/>
								<path class="s4" d="m112.62 85.59l-3.2 1.89c-0.41 0.24-0.76 0.2-0.93-0.11l-2.89-5.24 1.54-0.94c0.38-0.23 0.72-0.25 0.94-0.04 0 0 4.55 4.44 4.54 4.44z"/>
							</g>
							<g>
								<g>
									<path class="s3" d="m105.61 81.45l1.49-0.91c0.23-0.14 0.47-0.42 0.65-0.74l2.99-5.46-1.16 0.73c-0.26 0.16-0.52 0.45-0.72 0.8l-3.24 5.59z"/>
									<path class="s3" d="m105.61 81.45l-1.47 0.9q-0.36 0.21-0.55 0l-1.89-2.38 1.12-0.7q0.39-0.24 0.6-0.03c0 0 2.19 2.2 2.19 2.21z"/>
								</g>
								<g>
									<path class="s3" d="m108.21 75.61l-0.68 0.43c-0.15 0.1-0.31 0.27-0.43 0.47l-1.08 1.86 0.44 0.43c0 0 1.75-3.2 1.75-3.19z"/>
									<path class="s3" d="m105.27 77.65q-0.13-0.12-0.36 0.02l-0.67 0.42 1.14 1.39 0.64-1.1-0.74-0.73z"/>
									<path class="s3" d="m106.45 78.81l-0.44-0.43-0.64 1.1h0.01q0.11 0.15 0.33 0.01l0.34-0.21q0.22-0.15 0.39-0.44l0.02-0.03z"/>
								</g>
							</g>
						</g>
					</g>
				</g>
				<filter id="f0">
					<feFlood flood-color="#ffffff" flood-opacity="1" />
					<feBlend mode="normal" in2="SourceGraphic"/>
					<feComposite in2="SourceAlpha" operator="in" />
				</filter>
				<g filter="url(#f0)">
					<path class="s5" d="m172.9 171l-4.58 21.77c-1.6 0.49-3.18 0.69-5.63 0.69-7.46 0-19-2.75-15.49-19.14 3.13-14.72 16.31-20.91 26.82-20.91 6.97 0 12.97 1.67 16.73 4.91l3.41-16.39c-5.35-2.75-12.52-4.52-20.77-4.52-17.77 0-39.09 9.72-44.43 34.75-5.36 25.52 11.22 36.91 31.15 36.91 7.36 0 15.59-1.47 22.91-4.52l7.32-34.75h-15.95c-0.72 0-1.34 0.5-1.49 1.2z"/>
					<path class="s5" d="m300.42 137.4c-23.66 0-39.43 16.2-43.35 34.75-4.18 19.73 5.92 36.91 29.87 36.91 23.95 0 39.43-16.2 43.35-34.75 4.18-19.73-6.9-36.91-29.87-36.91zm11.6 35.24c-2.37 11.58-10.85 19.73-23.12 19.73-11.49 0-15.77-8.15-13.56-18.55 2.47-11.58 10.85-19.73 23.12-19.73 11.49 0 15.77 8.15 13.56 18.55z"/>
					<path class="s5" d="m354.9 157.91c0.35-2.85 3.58-4.71 10.66-4.81 6.58-0.1 13.66 1.67 19.31 6.09l3.08-14.97c0.13-0.64-0.15-1.28-0.71-1.61-5.24-3.12-13.03-5.21-21.45-5.21-13.25 0-26.33 5.99-29.18 19.14-5.19 24.15 30.72 20.81 28.55 32.1-0.55 3.04-4.96 4.71-12.03 4.71-7.46 0-15.31-1.87-22.29-7.46l-2.91 13.7c-0.38 1.8 0.5 3.61 2.13 4.45 6.06 3.11 13.83 5.01 22.73 5.01 14.63 0 27.22-4.32 30.89-19.93 5.67-23.95-29.86-22.19-28.8-31.22z"/>
					<path class="s5" d="m410.86 157.91c0.35-2.85 3.58-4.71 10.66-4.81 6.58-0.1 13.66 1.67 19.31 6.09l3.08-14.97c0.13-0.64-0.15-1.28-0.71-1.61-5.24-3.12-13.03-5.21-21.45-5.21-13.25 0-26.33 5.99-29.18 19.14-5.19 24.15 30.72 20.81 28.55 32.1-0.55 3.04-4.96 4.71-12.03 4.71-7.46 0-15.31-1.87-22.29-7.46l-2.91 13.7c-0.38 1.8 0.5 3.61 2.13 4.45 6.06 3.11 13.83 5.01 22.73 5.01 14.63 0 27.22-4.32 30.89-19.93 5.67-23.95-29.86-22.19-28.8-31.22z"/>
					<path class="s5" d="m231.91 138.87h-26.52c-1.2 0-2.23 0.84-2.47 2.01l-14.07 66.71h18.16l10.97-51.81c0.15-0.7 0.77-1.2 1.48-1.2h10.26c5.2 0 8.33 2.16 7.15 7.85-0.99 4.66-5.18 7.72-10.05 8.02h-9.52l15.65 34.19c0.82 1.8 2.62 2.95 4.6 2.95h14.91l-12.98-25.21c7.8-3.16 13.69-8.99 15.91-19.26 3.93-18.75-10.51-24.25-23.48-24.25z"/>
					<path class="s5" d="m478.82 138.87h15.92l12.5 68.72h-18.26l-1.69-10.8h-27c-0.91 0-1.75 0.49-2.2 1.28l-5.43 9.52h-19.04l39.58-65.54c1.19-1.97 3.33-3.18 5.62-3.18zm6.19 43.19l-2.72-19.24c-0.29-1.86-0.47-4.22-0.39-7.56-1.25 3.24-2.25 5.4-3.43 7.36l-11.13 19.44z"/>
				</g>
				<filter id="f1">
					<feFlood flood-color="#ffffff" flood-opacity="1" />
					<feBlend mode="normal" in2="SourceGraphic"/>
					<feComposite in2="SourceAlpha" operator="in" />
				</filter>
				<g filter="url(#f1)">
					<path class="s5" d="m218.77 63.07c0.25-1.17 1.28-2.01 2.47-2.01h24.52c15.87 0 28.79 5.94 24.9 24.43-3.63 17.33-16.06 22.29-33.39 22.29h-9.93l-4.11 19.41c-0.25 1.17-1.28 2.01-2.47 2.01h-15.96l13.95-66.13zm21.86 29.15c6.04 0 10.63-2.14 11.8-7.88 1.41-6.52-3.3-7.69-8.26-7.69h-8.99c-0.72 0-1.33 0.5-1.48 1.2l-3.09 14.38h10.03z"/>
					<path class="s5" d="m269.64 94.06c3.88-18.4 19.52-34.46 42.98-34.46 23.46 0 33.76 17.04 29.62 36.6-3.88 18.4-19.52 34.46-42.98 34.46-23.46 0-33.76-17.04-29.62-36.6zm54.49 0.49c2.2-10.32-2.05-18.4-13.44-18.4-12.17 0-20.48 8.08-22.93 19.57-2.2 10.32 2.05 18.4 13.44 18.4 12.17 0 20.57-8.08 22.93-19.57z"/>
					<path class="s5" d="m354.7 61.06h11.96c1.87 0 3.58 1.03 4.46 2.67l19.32 36.07c0.26-3.02 0.98-7.59 1.74-11l5.83-27.74h18.01l-14.38 68.14h-13.17c-1.12 0-2.15-0.62-2.68-1.6l-19.8-37.04c-0.17 3.21-0.85 6.91-1.5 10.12l-6.17 28.52h-18.01l14.38-68.14z"/>
					<path class="s5" d="m435.14 77.13h-19.27l3.12-14.87c0.15-0.69 0.76-1.19 1.47-1.19h55.24l-2.87 13.68c-0.29 1.39-1.52 2.38-2.94 2.38h-16.74l-10.75 50.89c-0.15 0.69-0.76 1.19-1.47 1.19h-16.79z"/>
					<path class="s5" d="m495.09 61.06h15.76l12.39 68.14h-18.11l-1.68-10.71h-26.76c-0.91 0-1.75 0.49-2.2 1.28l-5.38 9.43h-18.88l39.23-64.96c1.19-1.97 3.33-3.18 5.63-3.18zm6.11 42.84l-2.7-19.08c-0.29-1.85-0.46-4.19-0.39-7.5-1.24 3.21-2.23 5.35-3.4 7.3l-11.04 19.27h17.52z"/>
				</g>
				<filter id="f2">
					<feFlood flood-color="#ffffff" flood-opacity="1" />
					<feBlend mode="normal" in2="SourceGraphic"/>
					<feComposite in2="SourceAlpha" operator="in" />
				</filter>
				<g filter="url(#f2)">
					<path class="s6" d="m137.75 226.54h6.33c3.72 0 6.95 1.42 6 5.86-0.87 4.23-4.08 5.43-8.2 5.43h-2.9l-1.15 5.53h-3.62l3.54-16.81zm4.8 8.12c1.97 0 3.51-0.6 3.92-2.52 0.42-2.02-1.14-2.43-2.73-2.43h-3.04l-1.05 4.95z"/>
					<path class="s6" d="m177.77 226.54h6.83c3.12 0 6.45 1.34 5.55 5.69-0.6 2.79-2.42 4.18-4.61 4.8l3.57 6.32h-3.91l-3.19-5.89h-2.95l-1.22 5.89h-3.62c0 0 3.54-16.81 3.55-16.81zm5.31 7.93c1.58 0 3.06-0.77 3.41-2.43 0.38-1.78-0.79-2.33-2.32-2.33h-3.45l-1.02 4.76z"/>
					<path class="s6" d="m218.71 226.54h11.81l-0.67 3.17h-8.22l-0.76 3.58h7.53l-0.67 3.17h-7.5l-0.8 3.72h8.37l-0.66 3.17h-11.96l3.54-16.81z"/>
					<path class="s6" d="m257.53 226.54h11.86l-0.7 3.26h-8.25l-0.82 3.89h7.58l-0.7 3.27h-7.55l-1.34 6.39h-3.62z"/>
					<path class="s6" d="m296.07 226.54h11.81l-0.67 3.17h-8.22l-0.76 3.58h7.53l-0.67 3.17h-7.5l-0.8 3.72h8.37l-0.66 3.17h-11.96c0 0 3.54-16.81 3.53-16.81z"/>
					<path class="s6" d="m334.89 226.54h3.62l-3.54 16.81h-3.62z"/>
					<path class="s6" d="m369.05 229.81h-5.13l0.67-3.26h13.88l-0.7 3.26h-5.11l-2.86 13.55h-3.6l2.84-13.55z"/>
					<path class="s6" d="m402.23 236.92l2.2-10.38h3.6l-2.2 10.4c-0.54 2.67 0.73 3.48 2.89 3.48 2.37 0 4.13-1.03 4.7-3.67l2.14-10.21h3.6l-2.21 10.59c-1.08 4.97-4.76 6.56-8.55 6.56-3.79 0-7.2-1.78-6.17-6.77z"/>
					<path class="s6" d="m446.58 226.54h6.83c3.12 0 6.45 1.34 5.55 5.69-0.6 2.79-2.42 4.18-4.62 4.8l3.58 6.32h-3.91l-3.19-5.89h-2.95l-1.22 5.89h-3.62l3.54-16.81zm5.31 7.93c1.58 0 3.06-0.77 3.41-2.43 0.38-1.78-0.79-2.33-2.32-2.33h-3.45l-1.02 4.76z"/>
					<path class="s6" d="m492.62 226.54h3.91l3.29 16.81h-3.64l-0.55-3.12h-7.7l-1.87 3.12h-3.81l10.38-16.81zm2.49 10.66l-1.04-5.89c-0.07-0.38-0.1-0.84-0.09-1.46-0.25 0.62-0.46 1.05-0.7 1.44l-3.57 5.91z"/>
				</g>
			</g>
			<path fill-rule="evenodd" class="s7" d="m552.32 256.85l43.27-210.62 2.14 0.44-43.28 210.62z"/>
			<filter id="f3">
				<feFlood flood-color="#ffffff" flood-opacity="1" />
				<feBlend mode="normal" in2="SourceGraphic"/>
				<feComposite in2="SourceAlpha" operator="in" />
			</filter>
			<g filter="url(#f3)">
				<g>
					<path class="s5" d="m639.33 96.91h25.88l-1.15 7.11h-17.98l-1.36 8.47h16.52l-1.15 7.11h-16.47l-2.2 13.91h-7.89z"/>
					<path class="s5" d="m680.84 96.91h8.52l9.1 36.6h-7.95l-1.57-6.8h-16.78l-3.71 6.8h-8.31zm6.64 23.22l-2.93-12.81c-0.21-0.84-0.31-1.83-0.37-3.19-0.47 1.36-0.89 2.3-1.36 3.14l-7.11 12.86c0 0 11.76 0 11.77 0z"/>
					<path class="s5" d="m701.96 130.84l1.15-7.27c3.77 2.77 8.05 3.76 12.02 3.76 4.29 0 7.16-1.05 7.53-3.55 1.1-7.16-18.93-5.02-16.94-17.78 1.1-6.8 7.84-9.83 14.64-9.83 4.5 0 8.78 1.26 11.55 3.03l-1.05 7.06c-2.93-2.25-6.74-3.24-10.3-3.19-4.18 0.05-6.59 1.15-6.9 3.55-0.73 6.22 19.24 4.6 17.04 17.41-1.41 7.89-8.05 10.19-15.37 10.19-5.28 0-9.99-1.31-13.38-3.4z"/>
					<path class="s5" d="m741.69 96.91h13.8c8.1 0 15.32 3.08 13.75 12.76-1.41 9.2-8.26 11.82-17.25 11.82h-6.33l-1.88 12.02h-7.89zm11.4 17.67c4.29 0 7.58-1.31 8.26-5.49 0.68-4.39-2.77-5.28-6.22-5.28h-6.64l-1.72 10.77c0 0 6.33 0 6.32 0z"/>
					<path class="s5" d="m773.06 114.58c2.09-13.07 13.17-18.4 22.53-18.4 4.34 0 8.05 0.94 11.03 2.46l-1.15 7.16c-2.14-1.73-5.54-2.61-9.25-2.61-6.22 0-13.85 3.56-15.21 12.29-1.52 9.52 5.28 11.87 10.3 11.87q2.59-0.01 4.39-0.73l2.09-13.02h7.53l-2.88 18.25c-3.77 1.62-8.05 2.4-11.97 2.4-10.09 0-19.55-5.96-17.41-19.66z"/>
				</g>
				<g>
					<path class="s5" d="m628.8 150h14.22l-0.39 2.4h-11.7l-1.14 7.23h10.83l-0.39 2.4h-10.83l-1.41 8.97h-2.52z"/>
					<path class="s5" d="m644.67 163.23l2.1-13.23h2.52l-2.1 13.29c-0.69 4.26 1.68 5.67 5.25 5.67 3.84 0 6.6-1.59 7.29-5.85l2.07-13.11h2.52l-2.13 13.41c-0.96 6-5.13 7.95-9.72 7.95-4.59 0-8.76-2.13-7.8-8.13z"/>
					<path class="s5" d="m669.66 150h2.13l10.2 16.98c0.09-0.9 0.18-1.44 0.27-2.1l2.37-14.88h2.52l-3.33 21h-2.13l-10.2-17.01c-0.09 0.9-0.18 1.47-0.27 2.1l-2.37 14.91h-2.52z"/>
					<path class="s5" d="m692.73 150h6.84c7.11 0 10.44 4.53 9.48 10.65-0.96 6-5.04 10.35-12.69 10.35h-6.96zm3.89 18.6c5.67 0 9.09-3.15 9.9-8.25 0.81-4.98-1.56-7.95-7.23-7.95h-4.44l-2.55 16.2z"/>
					<path class="s5" d="m720.71 150h2.82l5.79 21h-2.61l-1.35-5.07h-11.34l-2.94 5.07h-2.82zm4.02 13.59l-2.73-10.2q-0.14-0.43-0.18-0.87-0.22 0.49-0.48 0.93l-5.97 10.14z"/>
					<path class="s5" d="m736.52 177.36l0.33-1.95c0.72 0.36 1.77 0.6 2.64 0.6 1.41 0 2.22-0.36 2.31-0.96 0.15-0.93-1.56-1.14-3.33-0.81l1.11-2.97c-4.62-0.63-9.09-4.41-7.95-11.37 1.08-6.63 7.29-10.26 12.54-10.26q3.24 0 5.58 1.44l-0.36 2.43c-1.26-0.99-3.03-1.47-4.95-1.47-4.41 0-9.42 2.7-10.32 8.16-0.99 6.15 3.51 8.76 7.5 8.76 2.07 0 4.11-0.54 5.7-1.56l-0.42 2.73c-1.56 0.78-3.48 1.14-5.34 1.23l-0.57 1.38c1.83-0.06 3.03 0.87 2.82 2.49-0.27 1.89-1.95 2.73-4.14 2.73-1.26 0-2.22-0.24-3.15-0.6z"/>
					<path class="s5" d="m760.61 150h2.82l5.79 21h-2.61l-1.35-5.07h-11.34l-2.94 5.07h-2.82zm4.02 13.59l-2.73-10.2q-0.14-0.43-0.18-0.87-0.22 0.49-0.48 0.93l-5.97 10.14zm-4.28-16.74c-0.75 0-1.11 0.42-1.08 1.08h-2.07c0.03-2.22 1.44-3.18 2.79-3.18 1.86 0 3.21 1.26 4.38 1.26 0.81 0 1.11-0.39 1.08-1.08h2.07c-0.03 2.25-1.44 3.18-2.82 3.18-1.89 0-3.21-1.26-4.35-1.26z"/>
					<path class="s5" d="m771.41 160.35c0.87-5.37 5.28-10.71 12.57-10.71 6.81 0 10.23 5.52 9.36 11.01-0.87 5.37-4.98 10.71-12.57 10.71-6.81 0-10.23-5.52-9.36-11.01zm19.41 0.15c0.63-3.96-1.35-8.46-6.99-8.46-5.64 0-9.21 4.08-9.9 8.46-0.63 3.96 1.35 8.46 6.99 8.46 5.64 0 9.21-4.08 9.9-8.46z"/>
					<path class="s5" d="m806.66 150h6.84c7.11 0 10.44 4.53 9.48 10.65-0.96 6-5.04 10.35-12.69 10.35h-6.96zm3.9 18.6c5.67 0 9.09-3.15 9.9-8.25 0.81-4.98-1.56-7.95-7.23-7.95h-4.44l-2.55 16.2z"/>
					<path class="s5" d="m828.83 150h14.16l-0.39 2.4h-11.64l-1.08 6.81h10.74l-0.36 2.4h-10.74l-1.11 6.99h11.82l-0.39 2.4h-14.34z"/>
					<path class="s5" d="m627.84 186h2.82l5.79 21h-2.61l-1.35-5.07h-11.34l-2.94 5.07h-2.82zm4.02 13.59l-2.73-10.2q-0.14-0.43-0.18-0.87-0.22 0.49-0.48 0.93l-5.97 10.14z"/>
					<path class="s5" d="m638.01 205.53l0.39-2.43c2.01 1.35 4.5 1.86 6.84 1.86 2.97 0 5.31-0.69 5.7-3.12 0.9-5.4-11.7-3.78-10.62-10.95 0.57-3.69 4.35-5.25 7.92-5.25 2.37 0 4.65 0.69 6.12 1.71l-0.36 2.4c-1.47-1.14-3.63-1.74-5.73-1.71-2.82 0-5.04 0.75-5.43 3.06-0.84 5.13 11.79 3.45 10.65 10.86-0.63 4.11-4.56 5.4-8.22 5.4-2.79 0-5.4-0.69-7.26-1.83z"/>
					<path class="s5" d="m655.46 205.53l0.39-2.43c2.01 1.35 4.5 1.86 6.84 1.86 2.97 0 5.31-0.69 5.7-3.12 0.9-5.4-11.7-3.78-10.62-10.95 0.57-3.69 4.35-5.25 7.92-5.25 2.37 0 4.65 0.69 6.12 1.71l-0.36 2.4c-1.47-1.14-3.63-1.74-5.73-1.71-2.82 0-5.04 0.75-5.43 3.06-0.84 5.13 11.79 3.45 10.65 10.86-0.63 4.11-4.56 5.4-8.22 5.4-2.79 0-5.4-0.69-7.26-1.83z"/>
					<path class="s5" d="m677.27 186h2.52l-3.33 21h-2.52z"/>
					<path class="s5" d="m681.02 205.53l0.39-2.43c2.01 1.35 4.5 1.86 6.84 1.86 2.97 0 5.31-0.69 5.7-3.12 0.9-5.4-11.7-3.78-10.62-10.95 0.57-3.69 4.35-5.25 7.92-5.25 2.37 0 4.65 0.69 6.12 1.71l-0.36 2.4c-1.47-1.14-3.63-1.74-5.73-1.71-2.82 0-5.04 0.75-5.43 3.06-0.84 5.13 11.79 3.45 10.65 10.86-0.63 4.11-4.56 5.4-8.22 5.4-2.79 0-5.4-0.69-7.26-1.83z"/>
					<path class="s5" d="m707.21 188.4h-7.38l0.39-2.4h17.28l-0.39 2.4h-7.38l-2.94 18.6h-2.52z"/>
					<path class="s5" d="m720.71 186h14.16l-0.39 2.4h-11.64l-1.08 6.81h10.74l-0.36 2.4h-10.74l-1.11 6.99h11.82l-0.39 2.4h-14.34zm6.93-6.51h2.16l3.27 4.38h-2.58l-1.95-2.58-2.73 2.58h-2.82z"/>
					<path class="s5" d="m739.34 186h2.13l10.2 16.98c0.09-0.9 0.18-1.44 0.27-2.1l2.37-14.88h2.52l-3.33 21h-2.13l-10.2-17.01c-0.09 0.9-0.18 1.47-0.27 2.1l-2.37 14.91h-2.52z"/>
					<path class="s5" d="m759.38 195.9c1.08-6.63 7.29-10.26 12.54-10.26q3.24 0 5.58 1.44l-0.36 2.43c-1.26-0.99-3.03-1.47-4.95-1.47-4.41 0-9.42 2.7-10.32 8.16-0.99 6.15 3.51 8.76 7.5 8.76 2.07 0 4.11-0.54 5.7-1.56l-0.42 2.73c-1.74 0.87-3.93 1.23-5.97 1.23-5.04 0-10.56-3.81-9.3-11.46z"/>
					<path class="s5" d="m781.79 186h2.52l-3.33 21h-2.52z"/>
					<path class="s5" d="m796.46 186h2.82l5.79 21h-2.61l-1.35-5.07h-11.34l-2.94 5.07h-2.82zm4.02 13.59l-2.73-10.2q-0.14-0.43-0.18-0.87-0.22 0.49-0.48 0.93l-5.97 10.14z"/>
					<path class="s5" d="m813.59 205.53l0.39-2.43c2.01 1.35 4.5 1.86 6.84 1.86 2.97 0 5.31-0.69 5.7-3.12 0.9-5.4-11.7-3.78-10.62-10.95 0.57-3.69 4.35-5.25 7.92-5.25 2.37 0 4.65 0.69 6.12 1.71l-0.36 2.4c-1.47-1.14-3.63-1.74-5.73-1.71-2.82 0-5.04 0.75-5.43 3.06-0.84 5.13 11.79 3.45 10.65 10.86-0.63 4.11-4.56 5.4-8.22 5.4-2.79 0-5.4-0.69-7.26-1.83z"/>
					<path class="s5" d="m832.25 196.35c0.87-5.37 5.28-10.71 12.57-10.71 6.81 0 10.23 5.52 9.36 11.01-0.87 5.37-4.98 10.71-12.57 10.71-6.81 0-10.23-5.52-9.36-11.01zm19.41 0.15c0.63-3.96-1.35-8.46-6.99-8.46-5.64 0-9.21 4.08-9.9 8.46-0.63 3.96 1.35 8.46 6.99 8.46 5.64 0 9.21-4.08 9.9-8.46z"/>
					<path class="s5" d="m856.94 195.9c1.08-6.63 7.29-10.26 12.54-10.26q3.24 0 5.58 1.44l-0.36 2.43c-1.26-0.99-3.03-1.47-4.95-1.47-4.41 0-9.42 2.7-10.32 8.16-0.99 6.15 3.51 8.76 7.5 8.76 2.07 0 4.11-0.54 5.7-1.56l-0.42 2.73c-1.74 0.87-3.93 1.23-5.97 1.23-5.04 0-10.56-3.81-9.3-11.46z"/>
					<path class="s5" d="m879.35 186h2.52l-3.33 21h-2.52z"/>
					<path class="s5" d="m894.02 186h2.82l5.79 21h-2.61l-1.35-5.07h-11.34l-2.94 5.07h-2.82zm4.02 13.59l-2.73-10.2q-0.14-0.43-0.18-0.87-0.22 0.49-0.48 0.93l-5.97 10.14z"/>
					<path class="s5" d="m908.99 186h2.52l-2.94 18.6h11.64l-0.39 2.4h-14.16z"/>
				</g>
			</g>
		</g>
	</g>
</svg>