<?xml version="1.0" encoding="UTF-8"?>
<svg id="Camada_2" data-name="Camada 2" xmlns="http://www.w3.org/2000/svg" xmlns:xlink="http://www.w3.org/1999/xlink" viewBox="0 0 920.21 257.3">
  <defs>
    <style>
      .cls-1 {
        fill: url(#linear-gradient);
      }

      .cls-1, .cls-2, .cls-3, .cls-4, .cls-5, .cls-6, .cls-7, .cls-8 {
        stroke-width: 0px;
      }

      .cls-2 {
        fill: #005490;
      }

      .cls-3 {
        fill: #98825f;
      }

      .cls-4 {
        fill: url(#linear-gradient-2);
      }

      .cls-5 {
        fill: #8e8e90;
      }

      .cls-6 {
        fill: #baa530;
      }

      .cls-7 {
        fill: #bbbabb;
      }

      .cls-8 {
        fill: #0f82bc;
      }
    </style>
    <linearGradient id="linear-gradient" x1="-12387.99" y1="578.86" x2="-12220.23" y2="516.13" gradientTransform="translate(-12269.86 570.03) rotate(175.24) scale(1 -1) skewX(-4.47)" gradientUnits="userSpaceOnUse">
      <stop offset="0" stop-color="#9e9d9f"/>
      <stop offset=".06" stop-color="#bfbfc0"/>
      <stop offset=".13" stop-color="#dadbdb"/>
      <stop offset=".19" stop-color="#ebecec"/>
      <stop offset=".23" stop-color="#f1f2f2"/>
      <stop offset=".29" stop-color="#ebecec"/>
      <stop offset=".36" stop-color="#dbdcdc"/>
      <stop offset=".44" stop-color="#c2c1c2"/>
      <stop offset=".49" stop-color="#b1b0b1"/>
      <stop offset=".49" stop-color="#adacad"/>
      <stop offset=".53" stop-color="#9a999a"/>
      <stop offset=".57" stop-color="#8e8e8f"/>
      <stop offset=".61" stop-color="#8b8b8c"/>
      <stop offset=".67" stop-color="#b4b5b5"/>
      <stop offset=".73" stop-color="#d5d6d6"/>
      <stop offset=".78" stop-color="#e9eaea"/>
      <stop offset=".81" stop-color="#f1f2f2"/>
      <stop offset="1" stop-color="#cfcdcd"/>
    </linearGradient>
    <linearGradient id="linear-gradient-2" x1="16.24" y1="65.7" x2="207.88" y2="103.48" gradientUnits="userSpaceOnUse">
      <stop offset="0" stop-color="#0072a8"/>
      <stop offset=".19" stop-color="#018ec9"/>
      <stop offset=".23" stop-color="#0388c2"/>
      <stop offset=".28" stop-color="#0b78b0"/>
      <stop offset=".34" stop-color="#185e92"/>
      <stop offset=".39" stop-color="#23497a"/>
      <stop offset=".49" stop-color="#23497a"/>
      <stop offset=".49" stop-color="#23497a"/>
      <stop offset=".55" stop-color="#1a578b"/>
      <stop offset=".68" stop-color="#0974ad"/>
      <stop offset=".75" stop-color="#0380ba"/>
      <stop offset=".89" stop-color="#136298"/>
      <stop offset="1" stop-color="#23497a"/>
    </linearGradient>
  </defs>
  <g id="logo_pos_hor" data-name="logo pos hor">
    <g>
      <g>
        <g>
          <path class="cls-1" d="M194.89,129.25c-31.35-12.62-62.98,3.04-91.12,19.42-30.81,17.93-64.42,32.76-103.77,16.43,6.42-35.18,15.76-71.98,23.17-111.9,35.66,10.79,58.8-5.32,86.54-25.9C144.87,1.21,183.43-8.44,219.75,8.35c-9.22,44.85-16.84,81.91-24.86,120.9Z"/>
          <path class="cls-4" d="M194.88,129.28c-7.18-2.89-14.82-4.43-22.7-4.57-3.76-5.73-15.38-19.03-42.4-19.03-8.46,0-17.82,1.31-27.84,3.9-10.75,2.78-21.07,4.19-30.66,4.19-32.76,0-49.82-16.29-55.63-23.29,3.08-14.45,5.47-26.29,7.51-37.28,7.64,2.28,14.75,3.41,21.79,3.43,4.48,4.29,16.92,14.26,36.14,14.26,8.13,0,16.67-1.77,25.36-5.27,16.56-6.66,31.94-10.2,45.75-10.35,31.88-.34,47.72,16.82,52.88,24.5l-10.16,49.53h-.03Z"/>
          <g>
            <g>
              <g>
                <g>
                  <path class="cls-3" d="M116.41,76.98l-.17,1.53,1.36-2.43c.07-.13.12-.27.14-.4l.09-.62-1.42,1.92Z"/>
                  <path class="cls-3" d="M116.33,76.85l-.14,1.22-.8-.85s-.03-.05-.02-.09l.04-.55.92.27Z"/>
                </g>
                <g>
                  <path class="cls-3" d="M116.34,74.56l-.17,1.51,1.35-2.42c.07-.13.12-.27.14-.4l.09-.61-1.42,1.91Z"/>
                  <path class="cls-3" d="M116.26,74.43l-.14,1.2-.8-.83s-.03-.05-.02-.09l.04-.54.92.26Z"/>
                </g>
                <g>
                  <path class="cls-3" d="M115.81,72.45l-.17,1.5,1.34-2.41c.07-.13.12-.27.14-.39l.09-.61-1.41,1.91Z"/>
                  <path class="cls-3" d="M115.73,72.32l-.14,1.19-.79-.82s-.03-.05-.02-.09l.04-.53.91.25Z"/>
                </g>
                <g>
                  <path class="cls-3" d="M115.99,79.72l-.17,1.54,1.36-2.44c.07-.13.13-.27.14-.4l.09-.62-1.43,1.93Z"/>
                  <path class="cls-3" d="M115.91,79.59l-.14,1.23-.8-.87s-.03-.05-.02-.1l.04-.55.92.29Z"/>
                </g>
                <g>
                  <path class="cls-3" d="M115.12,82.76l-.18,1.55,1.37-2.45c.07-.13.13-.28.15-.4l.1-.63-1.43,1.93Z"/>
                  <path class="cls-3" d="M115.04,82.62l-.14,1.24-.8-.89s-.03-.05-.02-.1l.04-.56.92.3Z"/>
                </g>
                <g>
                  <path class="cls-3" d="M113.77,86.08l-.18,1.56,1.37-2.45c.07-.13.13-.28.15-.4l.1-.63-1.43,1.92Z"/>
                  <path class="cls-3" d="M113.69,85.94l-.14,1.24-.79-.9s-.03-.05-.02-.1l.04-.56.92.32Z"/>
                </g>
                <g>
                  <path class="cls-3" d="M111.69,89.85l-.19,1.57,1.37-2.45c.07-.13.13-.28.15-.41l.1-.64-1.43,1.92Z"/>
                  <path class="cls-3" d="M111.61,89.71l-.15,1.25-.78-.92s-.03-.06-.02-.1l.04-.56.91.33Z"/>
                </g>
                <g>
                  <path class="cls-3" d="M109.2,93.09l-.19,1.58,1.37-2.44c.07-.13.13-.28.15-.41l.1-.64-1.42,1.91Z"/>
                  <path class="cls-3" d="M109.12,92.95l-.15,1.25-.77-.93s-.03-.06-.02-.1l.05-.56.9.34Z"/>
                </g>
              </g>
              <g>
                <g>
                  <path class="cls-6" d="M94.85,90.08l-.21,1.47-.79-1.04c-.04-.06-.06-.15-.05-.26l.06-.56.99.39Z"/>
                  <path class="cls-6" d="M94.97,89.84l-.17,1.17,1.06-1.91s.04-.09.05-.13l.1-.56-1.04,1.43Z"/>
                </g>
                <g>
                  <path class="cls-6" d="M95.55,87.33l-.21,1.46-.79-1.02c-.04-.06-.06-.15-.05-.26l.06-.56.99.38Z"/>
                  <path class="cls-6" d="M95.67,87.08l-.17,1.16,1.06-1.9s.04-.09.05-.13l.1-.55-1.04,1.43Z"/>
                </g>
                <g>
                  <path class="cls-6" d="M96.67,84.33l-.21,1.45-.79-1c-.04-.05-.06-.14-.05-.26l.06-.55.99.36Z"/>
                  <path class="cls-6" d="M96.79,84.08l-.17,1.15,1.06-1.9s.04-.09.05-.13l.1-.55-1.04,1.43Z"/>
                </g>
                <g>
                  <path class="cls-6" d="M94.58,92.59l-.22,1.49-.79-1.06c-.04-.06-.06-.15-.05-.27l.06-.57.99.41Z"/>
                  <path class="cls-6" d="M94.7,92.35l-.17,1.18,1.07-1.92s.04-.09.05-.13l.1-.56-1.05,1.43Z"/>
                </g>
                <g>
                  <path class="cls-6" d="M94.71,94.89l-.22,1.5-.79-1.07c-.04-.06-.06-.15-.05-.27l.06-.57,1,.42Z"/>
                  <path class="cls-6" d="M94.83,94.65l-.17,1.19,1.08-1.93s.04-.09.05-.14l.1-.57-1.05,1.44Z"/>
                </g>
                <g>
                  <path class="cls-6" d="M95.26,96.97l-.22,1.51-.8-1.09c-.04-.06-.06-.16-.05-.27l.06-.58,1.01.43Z"/>
                  <path class="cls-6" d="M95.38,96.72l-.17,1.2,1.08-1.94s.04-.09.05-.14l.1-.57-1.06,1.44Z"/>
                </g>
                <g>
                  <path class="cls-6" d="M96.5,98.68l-.22,1.53-.82-1.11c-.04-.06-.06-.16-.05-.28l.06-.59,1.02.44Z"/>
                  <path class="cls-6" d="M96.62,98.43l-.17,1.22,1.09-1.96s.04-.09.05-.14l.1-.58-1.07,1.46Z"/>
                </g>
                <g>
                  <path class="cls-6" d="M98.33,99.36l-.21,1.55-.83-1.13c-.05-.06-.06-.16-.05-.28l.06-.59,1.04.45Z"/>
                  <path class="cls-6" d="M98.45,99.1l-.17,1.23,1.1-1.98s.04-.09.05-.14l.1-.58-1.09,1.47Z"/>
                </g>
              </g>
            </g>
            <g>
              <g>
                <path class="cls-7" d="M96.62,95.04l2.98-1.76c.39-.23.79-.71,1.06-1.27l4.77-9.78-1.53.93c-.38.23-.76.65-1.06,1.17l-6.23,10.71Z"/>
                <path class="cls-7" d="M112.62,85.59l-3.2,1.89c-.41.24-.76.2-.93-.11l-2.89-5.24,1.54-.94c.38-.23.72-.25.94-.04l4.55,4.44Z"/>
              </g>
              <g>
                <g>
                  <path class="cls-6" d="M105.61,81.45l1.49-.91c.23-.14.47-.42.65-.74l2.99-5.46-1.16.73c-.26.16-.52.45-.72.8l-3.24,5.59Z"/>
                  <path class="cls-6" d="M105.61,81.45l-1.47.9c-.23.14-.43.14-.55,0l-1.89-2.38,1.12-.7c.25-.16.47-.17.6-.03l2.19,2.2Z"/>
                </g>
                <g>
                  <path class="cls-6" d="M108.21,75.61l-.68.43c-.15.1-.31.27-.43.47l-1.08,1.86.44.43,1.75-3.2Z"/>
                  <path class="cls-6" d="M105.27,77.65c-.08-.08-.21-.07-.36.02l-.67.42,1.14,1.39.64-1.1-.74-.73Z"/>
                  <path class="cls-6" d="M106.45,78.81l-.44-.43-.64,1.1h.01c.07.1.19.1.33.01l.34-.21c.14-.09.28-.25.39-.44l.02-.03Z"/>
                </g>
              </g>
            </g>
          </g>
        </g>
        <g>
          <path class="cls-2" d="M172.9,171l-4.58,21.77c-1.6.49-3.18.69-5.63.69-7.46,0-19-2.75-15.49-19.14,3.13-14.72,16.31-20.91,26.82-20.91,6.97,0,12.97,1.67,16.73,4.91l3.41-16.39c-5.35-2.75-12.52-4.52-20.77-4.52-17.77,0-39.09,9.72-44.43,34.75-5.36,25.52,11.22,36.91,31.15,36.91,7.36,0,15.59-1.47,22.91-4.52l7.32-34.75h-15.95c-.72,0-1.34.5-1.49,1.21Z"/>
          <path class="cls-2" d="M300.42,137.4c-23.66,0-39.43,16.2-43.35,34.75-4.18,19.73,5.92,36.91,29.87,36.91s39.43-16.2,43.35-34.75c4.18-19.73-6.9-36.91-29.87-36.91ZM312.02,172.64c-2.37,11.58-10.85,19.73-23.12,19.73-11.49,0-15.77-8.15-13.56-18.55,2.47-11.58,10.85-19.73,23.12-19.73,11.49,0,15.77,8.15,13.56,18.55Z"/>
          <path class="cls-2" d="M354.9,157.91c.35-2.85,3.58-4.71,10.66-4.81,6.58-.1,13.66,1.67,19.31,6.09l3.08-14.97c.13-.64-.15-1.28-.71-1.61-5.24-3.12-13.03-5.21-21.45-5.21-13.25,0-26.33,5.99-29.18,19.14-5.19,24.15,30.72,20.81,28.55,32.1-.55,3.04-4.96,4.71-12.03,4.71-7.46,0-15.31-1.87-22.29-7.46l-2.91,13.7c-.38,1.8.5,3.61,2.13,4.45,6.06,3.11,13.83,5.01,22.73,5.01,14.63,0,27.22-4.32,30.89-19.93,5.67-23.95-29.86-22.19-28.8-31.22Z"/>
          <path class="cls-2" d="M410.86,157.91c.35-2.85,3.58-4.71,10.66-4.81,6.58-.1,13.66,1.67,19.31,6.09l3.08-14.97c.13-.64-.15-1.28-.71-1.61-5.24-3.12-13.03-5.21-21.45-5.21-13.25,0-26.33,5.99-29.18,19.14-5.19,24.15,30.72,20.81,28.55,32.1-.55,3.04-4.96,4.71-12.03,4.71-7.46,0-15.31-1.87-22.29-7.46l-2.91,13.7c-.38,1.8.5,3.61,2.13,4.45,6.06,3.11,13.83,5.01,22.73,5.01,14.63,0,27.22-4.32,30.89-19.93,5.67-23.95-29.86-22.19-28.8-31.22Z"/>
          <path class="cls-2" d="M231.91,138.87h-26.52c-1.2,0-2.23.84-2.47,2.01l-14.07,66.71h18.16l10.97-51.81c.15-.7.77-1.2,1.48-1.2h10.26c5.2,0,8.33,2.16,7.15,7.85-.99,4.66-5.18,7.72-10.05,8.02h-9.52l15.65,34.19c.82,1.8,2.62,2.95,4.6,2.95h14.91l-12.98-25.21c7.8-3.16,13.69-8.99,15.91-19.26,3.93-18.75-10.51-24.25-23.47-24.25Z"/>
          <path class="cls-2" d="M478.82,138.87h15.92l12.5,68.72h-18.26l-1.69-10.8h-27c-.91,0-1.75.49-2.2,1.28l-5.43,9.52h-19.04l39.58-65.54c1.19-1.97,3.33-3.18,5.63-3.18ZM485.01,182.06l-2.72-19.24c-.29-1.86-.47-4.22-.39-7.56-1.25,3.24-2.25,5.4-3.43,7.36l-11.13,19.44h17.67Z"/>
        </g>
        <g>
          <path class="cls-2" d="M218.77,63.07c.25-1.17,1.28-2.01,2.47-2.01h24.52c15.87,0,28.79,5.94,24.9,24.43-3.63,17.33-16.06,22.29-33.39,22.29h-9.93l-4.11,19.41c-.25,1.17-1.28,2.01-2.47,2.01h-15.96l13.95-66.13ZM240.63,92.22c6.04,0,10.63-2.14,11.8-7.88,1.41-6.52-3.3-7.69-8.26-7.69h-8.99c-.72,0-1.33.5-1.48,1.2l-3.09,14.38h10.03Z"/>
          <path class="cls-2" d="M269.64,94.06c3.88-18.4,19.52-34.46,42.98-34.46s33.76,17.04,29.62,36.6c-3.88,18.4-19.52,34.46-42.98,34.46s-33.76-17.04-29.62-36.6ZM324.13,94.55c2.2-10.32-2.05-18.4-13.44-18.4-12.17,0-20.48,8.08-22.93,19.57-2.2,10.32,2.05,18.4,13.44,18.4,12.17,0,20.57-8.08,22.93-19.57Z"/>
          <path class="cls-2" d="M354.7,61.06h11.96c1.87,0,3.58,1.03,4.46,2.67l19.32,36.07c.26-3.02.98-7.59,1.74-11l5.83-27.74h18.01l-14.38,68.14h-13.17c-1.12,0-2.15-.62-2.68-1.6l-19.8-37.04c-.17,3.21-.85,6.91-1.5,10.12l-6.17,28.52h-18.01l14.38-68.14Z"/>
          <path class="cls-2" d="M435.14,77.13h-19.27l3.12-14.87c.15-.69.76-1.19,1.47-1.19h55.24l-2.87,13.68c-.29,1.39-1.52,2.38-2.94,2.38h-16.74l-10.75,50.89c-.15.69-.76,1.19-1.47,1.19h-16.79l11-52.08Z"/>
          <path class="cls-2" d="M495.09,61.06h15.76l12.39,68.14h-18.11l-1.68-10.71h-26.76c-.91,0-1.75.49-2.2,1.28l-5.38,9.43h-18.88l39.23-64.96c1.19-1.97,3.33-3.18,5.63-3.18ZM501.2,103.9l-2.7-19.08c-.29-1.85-.46-4.19-.39-7.5-1.24,3.21-2.23,5.35-3.40,7.3l-11.04,19.27h17.52Z"/>
        </g>
        <g>
          <path class="cls-8" d="M137.75,226.54h6.33c3.72,0,6.95,1.42,6,5.86-.87,4.23-4.08,5.43-8.2,5.43h-2.9l-1.15,5.53h-3.62l3.54-16.81ZM142.55,234.66c1.97,0,3.51-.6,3.92-2.52.42-2.02-1.14-2.43-2.73-2.43h-3.04l-1.05,4.95h2.9Z"/>
          <path class="cls-8" d="M177.77,226.54h6.83c3.12,0,6.45,1.34,5.55,5.69-.6,2.79-2.42,4.18-4.61,4.8l3.57,6.32h-3.91l-3.19-5.89h-2.95l-1.22,5.89h-3.62l3.54-16.81ZM183.08,234.47c1.58,0,3.06-.77,3.41-2.43.38-1.78-.79-2.33-2.32-2.33h-3.45l-1.02,4.76h3.38Z"/>
          <path class="cls-8" d="M218.71,226.54h11.81l-.67,3.17h-8.22l-.76,3.58h7.53l-.67,3.17h-7.5l-.8,3.72h8.37l-.66,3.17h-11.96l3.54-16.81Z"/>
          <path class="cls-8" d="M257.53,226.54h11.86l-.7,3.26h-8.25l-.82,3.89h7.58l-.7,3.27h-7.55l-1.34,6.39h-3.62l3.54-16.81Z"/>
          <path class="cls-8" d="M296.07,226.54h11.81l-.67,3.17h-8.22l-.76,3.58h7.53l-.67,3.17h-7.5l-.8,3.72h8.37l-.66,3.17h-11.96l3.54-16.81Z"/>
          <path class="cls-8" d="M334.89,226.54h3.62l-3.54,16.81h-3.62l3.54-16.81Z"/>
          <path class="cls-8" d="M369.05,229.81h-5.13l.67-3.26h13.88l-.7,3.26h-5.11l-2.86,13.55h-3.6l2.84-13.55Z"/>
          <path class="cls-8" d="M402.23,236.92l2.2-10.38h3.6l-2.2,10.4c-.54,2.67.73,3.48,2.89,3.48,2.37,0,4.13-1.03,4.7-3.67l2.14-10.21h3.6l-2.21,10.59c-1.08,4.97-4.76,6.56-8.55,6.56s-7.2-1.78-6.16-6.77Z"/>
          <path class="cls-8" d="M446.58,226.54h6.83c3.12,0,6.45,1.34,5.55,5.69-.6,2.79-2.42,4.18-4.62,4.8l3.58,6.32h-3.91l-3.19-5.89h-2.95l-1.22,5.89h-3.62l3.54-16.81ZM451.89,234.47c1.58,0,3.06-.77,3.41-2.43.38-1.78-.79-2.33-2.32-2.33h-3.45l-1.02,4.76h3.38Z"/>
          <path class="cls-8" d="M492.62,226.54h3.91l3.29,16.81h-3.64l-.55-3.12h-7.7l-1.87,3.12h-3.81l10.38-16.81ZM495.11,237.2l-1.04-5.89c-.07-.38-.1-.84-.09-1.46-.25.62-.46,1.05-.7,1.44l-3.57,5.91h5.4Z"/>
        </g>
      </g>
      <rect class="cls-5" x="467.54" y="150.68" width="215.02" height="2.18" transform="translate(310.63 684.5) rotate(-78.39)"/>
      <g>
        <g>
          <path class="cls-2" d="M639.33,96.91h25.88l-1.15,7.11h-17.98l-1.36,8.47h16.52l-1.15,7.11h-16.47l-2.2,13.91h-7.89l5.8-36.6Z"/>
          <path class="cls-2" d="M680.84,96.91h8.52l9.1,36.6h-7.95l-1.57-6.8h-16.78l-3.71,6.8h-8.31l20.7-36.6ZM687.48,120.13l-2.93-12.81c-.21-.84-.31-1.83-.37-3.19-.47,1.36-.89,2.3-1.36,3.14l-7.11,12.86h11.76Z"/>
          <path class="cls-2" d="M701.96,130.84l1.15-7.27c3.77,2.77,8.05,3.76,12.02,3.76,4.29,0,7.16-1.05,7.53-3.55,1.1-7.16-18.93-5.02-16.94-17.78,1.1-6.8,7.84-9.83,14.64-9.83,4.5,0,8.78,1.26,11.55,3.03l-1.05,7.06c-2.93-2.25-6.74-3.24-10.3-3.19-4.18.05-6.59,1.15-6.9,3.55-.73,6.22,19.24,4.6,17.04,17.41-1.41,7.89-8.05,10.19-15.37,10.19-5.28,0-9.99-1.31-13.38-3.4Z"/>
          <path class="cls-2" d="M741.69,96.91h13.8c8.1,0,15.32,3.08,13.75,12.76-1.41,9.2-8.26,11.82-17.25,11.82h-6.33l-1.88,12.02h-7.89l5.8-36.6ZM753.09,114.58c4.29,0,7.58-1.31,8.26-5.49.68-4.39-2.77-5.28-6.22-5.28h-6.64l-1.72,10.77h6.33Z"/>
          <path class="cls-2" d="M773.06,114.58c2.09-13.07,13.17-18.4,22.53-18.4,4.34,0,8.05.94,11.03,2.46l-1.15,7.16c-2.14-1.73-5.54-2.61-9.25-2.61-6.22,0-13.85,3.56-15.21,12.29-1.52,9.52,5.28,11.87,10.3,11.87,1.73,0,3.19-.26,4.39-.73l2.09-13.02h7.53l-2.88,18.25c-3.77,1.62-8.05,2.4-11.97,2.4-10.09,0-19.55-5.96-17.41-19.66Z"/>
        </g>
        <g>
          <path class="cls-2" d="M628.8,150h14.22l-.39,2.4h-11.7l-1.14,7.23h10.83l-.39,2.4h-10.83l-1.41,8.97h-2.52l3.33-21Z"/>
          <path class="cls-2" d="M644.67,163.23l2.1-13.23h2.52l-2.1,13.29c-.69,4.26,1.68,5.67,5.25,5.67,3.84,0,6.6-1.59,7.29-5.85l2.07-13.11h2.52l-2.13,13.41c-.96,6-5.13,7.95-9.72,7.95s-8.76-2.13-7.8-8.13Z"/>
          <path class="cls-2" d="M669.66,150h2.13l10.2,16.98c.09-.9.18-1.44.27-2.1l2.37-14.88h2.52l-3.33,21h-2.13l-10.2-17.01c-.09.9-.18,1.47-.27,2.1l-2.37,14.91h-2.52l3.33-21Z"/>
          <path class="cls-2" d="M692.73,150h6.84c7.11,0,10.44,4.53,9.48,10.65-.96,6-5.04,10.35-12.69,10.35h-6.96l3.33-21ZM696.62,168.6c5.67,0,9.09-3.15,9.9-8.25.81-4.98-1.56-7.95-7.23-7.95h-4.44l-2.55,16.2h4.32Z"/>
          <path class="cls-2" d="M720.71,150h2.82l5.79,21h-2.61l-1.35-5.07h-11.34l-2.94,5.07h-2.82l12.45-21ZM724.73,163.59l-2.73-10.2c-.09-.3-.15-.57-.18-.87-.15.33-.3.63-.48.93l-5.97,10.14h9.36Z"/>
          <path class="cls-2" d="M736.52,177.36l.33-1.95c.72.36,1.77.6,2.64.6,1.41,0,2.22-.36,2.31-.96.15-.93-1.56-1.14-3.33-.81l1.11-2.97c-4.62-.63-9.09-4.41-7.95-11.37,1.08-6.63,7.29-10.26,12.54-10.26,2.16,0,4.02.48,5.58,1.44l-.36,2.43c-1.26-.99-3.03-1.47-4.95-1.47-4.41,0-9.42,2.7-10.32,8.16-.99,6.15,3.51,8.76,7.5,8.76,2.07,0,4.11-.54,5.7-1.56l-.42,2.73c-1.56.78-3.48,1.14-5.34,1.23l-.57,1.38c1.83-.06,3.03.87,2.82,2.49-.27,1.89-1.95,2.73-4.14,2.73-1.26,0-2.22-.24-3.15-.6Z"/>
          <path class="cls-2" d="M760.61,150h2.82l5.79,21h-2.61l-1.35-5.07h-11.34l-2.94,5.07h-2.82l12.45-21ZM764.63,163.59l-2.73-10.2c-.09-.3-.15-.57-.18-.87-.15.33-.3.63-.48.93l-5.97,10.14h9.36ZM760.35,146.85c-.75,0-1.11.42-1.08,1.08h-2.07c.03-2.22,1.44-3.18,2.79-3.18,1.86,0,3.21,1.26,4.38,1.26.81,0,1.11-.39,1.08-1.08h2.07c-.03,2.25-1.44,3.18-2.82,3.18-1.89,0-3.21-1.26-4.35-1.26Z"/>
          <path class="cls-2" d="M771.41,160.35c.87-5.37,5.28-10.71,12.57-10.71,6.81,0,10.23,5.52,9.36,11.01-.87,5.37-4.98,10.71-12.57,10.71-6.81,0-10.23-5.52-9.36-11.01ZM790.82,160.5c.63-3.96-1.35-8.46-6.99-8.46s-9.21,4.08-9.9,8.46c-.63,3.96,1.35,8.46,6.99,8.46s9.21-4.08,9.9-8.46Z"/>
          <path class="cls-2" d="M806.66,150h6.84c7.11,0,10.44,4.53,9.48,10.65-.96,6-5.04,10.35-12.69,10.35h-6.96l3.33-21ZM810.56,168.6c5.67,0,9.09-3.15,9.9-8.25.81-4.98-1.56-7.95-7.23-7.95h-4.44l-2.55,16.2h4.32Z"/>
          <path class="cls-2" d="M828.83,150h14.16l-.39,2.4h-11.64l-1.08,6.81h10.74l-.36,2.4h-10.74l-1.11,6.99h11.82l-.39,2.4h-14.34l3.33-21Z"/>
          <path class="cls-2" d="M627.84,186h2.82l5.79,21h-2.61l-1.35-5.07h-11.34l-2.94,5.07h-2.82l12.45-21ZM631.86,199.59l-2.73-10.2c-.09-.3-.15-.57-.18-.87-.15.33-.3.63-.48.93l-5.97,10.14h9.36Z"/>
          <path class="cls-2" d="M638.01,205.53l.39-2.43c2.01,1.35,4.5,1.86,6.84,1.86,2.97,0,5.31-.69,5.7-3.12.9-5.4-11.7-3.78-10.62-10.95.57-3.69,4.35-5.25,7.92-5.25,2.37,0,4.65.69,6.12,1.71l-.36,2.4c-1.47-1.14-3.63-1.74-5.73-1.71-2.82,0-5.04.75-5.43,3.06-.84,5.13,11.79,3.45,10.65,10.86-.63,4.11-4.56,5.4-8.22,5.4-2.79,0-5.4-.69-7.26-1.83Z"/>
          <path class="cls-2" d="M655.46,205.53l.39-2.43c2.01,1.35,4.5,1.86,6.84,1.86,2.97,0,5.31-.69,5.7-3.12.9-5.4-11.7-3.78-10.62-10.95.57-3.69,4.35-5.25,7.92-5.25,2.37,0,4.65.69,6.12,1.71l-.36,2.4c-1.47-1.14-3.63-1.74-5.73-1.71-2.82,0-5.04.75-5.43,3.06-.84,5.13,11.79,3.45,10.65,10.86-.63,4.11-4.56,5.4-8.22,5.4-2.79,0-5.4-.69-7.26-1.83Z"/>
          <path class="cls-2" d="M677.27,186h2.52l-3.33,21h-2.52l3.33-21Z"/>
          <path class="cls-2" d="M681.02,205.53l.39-2.43c2.01,1.35,4.5,1.86,6.84,1.86,2.97,0,5.31-.69,5.7-3.12.9-5.4-11.7-3.78-10.62-10.95.57-3.69,4.35-5.25,7.92-5.25,2.37,0,4.65.69,6.12,1.71l-.36,2.4c-1.47-1.14-3.63-1.74-5.73-1.71-2.82,0-5.04.75-5.43,3.06-.84,5.13,11.79,3.45,10.65,10.86-.63,4.11-4.56,5.4-8.22,5.4-2.79,0-5.4-.69-7.26-1.83Z"/>
          <path class="cls-2" d="M707.21,188.4h-7.38l.39-2.4h17.28l-.39,2.4h-7.38l-2.94,18.6h-2.52l2.94-18.6Z"/>
          <path class="cls-2" d="M720.71,186h14.16l-.39,2.4h-11.64l-1.08,6.81h10.74l-.36,2.4h-10.74l-1.11,6.99h11.82l-.39,2.4h-14.34l3.33-21ZM727.64,179.49h2.16l3.27,4.38h-2.58l-1.95-2.58-2.73,2.58h-2.82l4.65-4.38Z"/>
          <path class="cls-2" d="M739.34,186h2.13l10.2,16.98c.09-.9.18-1.44.27-2.1l2.37-14.88h2.52l-3.33,21h-2.13l-10.2-17.01c-.09.9-.18,1.47-.27,2.1l-2.37,14.91h-2.52l3.33-21Z"/>
          <path class="cls-2" d="M759.38,195.9c1.08-6.63,7.29-10.26,12.54-10.26,2.16,0,4.02.48,5.58,1.44l-.36,2.43c-1.26-.99-3.03-1.47-4.95-1.47-4.41,0-9.42,2.7-10.32,8.16-.99,6.15,3.51,8.76,7.5,8.76,2.07,0,4.11-.54,5.7-1.56l-.42,2.73c-1.74.87-3.93,1.23-5.97,1.23-5.04,0-10.56-3.81-9.3-11.46Z"/>
          <path class="cls-2" d="M781.79,186h2.52l-3.33,21h-2.52l3.33-21Z"/>
          <path class="cls-2" d="M796.46,186h2.82l5.79,21h-2.61l-1.35-5.07h-11.34l-2.94,5.07h-2.82l12.45-21ZM800.48,199.59l-2.73-10.2c-.09-.3-.15-.57-.18-.87-.15.33-.3.63-.48.93l-5.97,10.14h9.36Z"/>
          <path class="cls-2" d="M813.59,205.53l.39-2.43c2.01,1.35,4.5,1.86,6.84,1.86,2.97,0,5.31-.69,5.7-3.12.9-5.4-11.7-3.78-10.62-10.95.57-3.69,4.35-5.25,7.92-5.25,2.37,0,4.65.69,6.12,1.71l-.36,2.4c-1.47-1.14-3.63-1.74-5.73-1.71-2.82,0-5.04.75-5.43,3.06-.84,5.13,11.79,3.45,10.65,10.86-.63,4.11-4.56,5.4-8.22,5.4-2.79,0-5.4-.69-7.26-1.83Z"/>
          <path class="cls-2" d="M832.25,196.35c.87-5.37,5.28-10.71,12.57-10.71,6.81,0,10.23,5.52,9.36,11.01-.87,5.37-4.98,10.71-12.57,10.71-6.81,0-10.23-5.52-9.36-11.01ZM851.66,196.5c.63-3.96-1.35-8.46-6.99-8.46s-9.21,4.08-9.9,8.46c-.63,3.96,1.35,8.46,6.99,8.46s9.21-4.08,9.9-8.46Z"/>
          <path class="cls-2" d="M856.94,195.9c1.08-6.63,7.29-10.26,12.54-10.26,2.16,0,4.02.48,5.58,1.44l-.36,2.43c-1.26-.99-3.03-1.47-4.95-1.47-4.41,0-9.42,2.7-10.32,8.16-.99,6.15,3.51,8.76,7.5,8.76,2.07,0,4.11-.54,5.7-1.56l-.42,2.73c-1.74.87-3.93,1.23-5.97,1.23-5.04,0-10.56-3.81-9.3-11.46Z"/>
          <path class="cls-2" d="M879.35,186h2.52l-3.33,21h-2.52l3.33-21Z"/>
          <path class="cls-2" d="M894.02,186h2.82l5.79,21h-2.61l-1.35-5.07h-11.34l-2.94,5.07h-2.82l12.45-21ZM898.04,199.59l-2.73-10.2c-.09-.3-.15-.57-.18-.87-.15.33-.3.63-.48.93l-5.97,10.14h9.36Z"/>
          <path class="cls-2" d="M908.99,186h2.52l-2.94,18.6h11.64l-.39,2.4h-14.16l3.33-21Z"/>
        </g>
      </g>
    </g>
  </g>
</svg>
